<svg width="20" height="20" role="presentation" aria-hidden="true" viewBox="0 0 20 20" fill="none" xmlns="http://www.w3.org/2000/svg"><path fill-rule="evenodd" clip-rule="evenodd" d="M16.7916 5.23377C16.8221 5.37412 16.8247 5.51912 16.7991 5.66046C16.7735 5.80179 16.7202 5.93669 16.6425 6.05744C16.5647 6.17818 16.4638 6.28241 16.3457 6.36414C16.2276 6.44588 16.0945 6.50352 15.9541 6.53377L12.5566 7.26752C12.2772 7.32753 12.0268 7.48147 11.8471 7.70369C11.6674 7.92591 11.5693 8.20299 11.5691 8.48877V9.58877C11.5695 10.7839 11.7842 11.9693 12.2029 13.0888L14.2329 18.525C14.283 18.6595 14.3062 18.8025 14.3011 18.9459C14.296 19.0893 14.2627 19.2302 14.2031 19.3608C14.1434 19.4913 14.0587 19.6088 13.9537 19.7066C13.8487 19.8044 13.7254 19.8805 13.591 19.9306C13.4566 19.9808 13.3136 20.004 13.1702 19.9988C13.0268 19.9937 12.8858 19.9604 12.7552 19.9008C12.6247 19.8412 12.5072 19.7565 12.4094 19.6515C12.3117 19.5465 12.2355 19.4232 12.1854 19.2888L10.2429 14.0888C10.1984 13.9694 10.1184 13.8664 10.0137 13.7937C9.90907 13.721 9.78468 13.6821 9.65725 13.6821C9.52982 13.6821 9.40543 13.721 9.30076 13.7937C9.19609 13.8664 9.11614 13.9694 9.07162 14.0888L7.12912 19.2888C7.02785 19.5603 6.82285 19.7804 6.55925 19.9008C6.29564 20.0212 5.99502 20.0319 5.7235 19.9306C5.45198 19.8294 5.23182 19.6244 5.11145 19.3608C4.99107 19.0972 4.98035 18.7965 5.08162 18.525L7.11287 13.0875C7.53115 11.968 7.74538 10.7826 7.74538 9.58752V8.48877C7.74524 8.20316 7.6473 7.92622 7.46786 7.70402C7.28842 7.48183 7.0383 7.32778 6.75912 7.26752L3.36163 6.53252C3.07834 6.47118 2.83102 6.29983 2.67408 6.05615C2.51713 5.81247 2.46342 5.51642 2.52475 5.23314C2.58608 4.94986 2.75744 4.70254 3.00112 4.54559C3.2448 4.38865 3.54084 4.33493 3.82413 4.39627L8.60162 5.42877C9.29776 5.57922 10.018 5.57922 10.7141 5.42877L15.4916 4.39627C15.632 4.36576 15.777 4.36324 15.9183 4.38883C16.0596 4.41443 16.1945 4.46764 16.3153 4.54543C16.436 4.62322 16.5403 4.72406 16.622 4.84217C16.7037 4.96028 16.7614 5.09335 16.7916 5.23377ZM9.60413 1.46905e-05C9.89554 -0.00695503 10.1854 0.044424 10.4567 0.151129C10.728 0.257835 10.9751 0.417712 11.1837 0.621356C11.3923 0.824999 11.558 1.0683 11.6712 1.33694C11.7844 1.60558 11.8426 1.89414 11.8426 2.18564C11.8426 2.47714 11.7844 2.7657 11.6712 3.03434C11.558 3.30298 11.3923 3.54628 11.1837 3.74992C10.9751 3.95357 10.728 4.11344 10.4567 4.22015C10.1854 4.32686 9.89554 4.37823 9.60413 4.37126C9.03351 4.35762 8.49086 4.12136 8.09211 3.71296C7.69337 3.30456 7.47015 2.75642 7.47015 2.18564C7.47015 1.61486 7.69337 1.06672 8.09211 0.65832C8.49086 0.249923 9.03351 0.0136618 9.60413 1.46905e-05Z" fill="#FFFFFF"></path></svg>