<svg width="287" height="61" viewBox="0 0 287 61" fill="none" xmlns="http://www.w3.org/2000/svg">
<path d="M284.169 8.84194C280.546 11.2844 275.466 15.2447 270.682 21.2388C268.431 24.0599 266.681 26.7804 262.903 33.6958C259.921 39.147 256.008 46.6019 251.675 55.7688C250.063 49.5637 248.339 39.9043 249.39 28.1608C250.512 15.63 254.319 5.93035 257.193 0C258.554 2.57652 260.413 5.57185 262.949 8.65095C264.585 10.6411 266.227 12.3331 267.761 13.7504C265.067 16.0254 261.461 19.6004 258.299 24.7433C255.749 28.8811 254.272 32.7643 253.384 35.7598C255.112 31.9267 258.322 26.1036 264.075 20.5585C271.661 13.2445 279.782 10.1587 284.165 8.84528L284.169 8.84194Z" fill="url(#paint0_linear_1_4)"/>
<path d="M279.16 20.0257C277.987 23.7549 277.431 27.1254 277.182 29.8561C278.84 31.749 280.651 34.0778 282.399 36.8788C284.5 40.2626 285.967 43.4557 287 46.1495C283.521 44.6016 279.498 43.0503 274.964 41.6934C270.669 40.4034 266.668 39.5222 263.087 38.9024C263.767 37.2907 264.746 35.0795 266.039 32.5063C267.64 29.3099 269.798 25.0078 273.02 20.6053C275.272 17.5296 278.837 13.3214 284.218 9.10986L284.185 9.15677C282.52 11.8137 280.607 15.4624 279.163 20.0257H279.16Z" fill="url(#paint1_linear_1_4)"/>
<path d="M249.092 21.2822C248.033 21.5469 246.51 21.8049 244.672 21.7178C242.86 21.6306 241.383 21.2354 240.36 20.8735C240.904 22.7062 241.707 24.8772 242.914 27.1992C244.432 30.1241 246.134 32.416 247.598 34.1113C247.598 32.0742 247.711 29.7858 248.016 27.3031C248.288 25.0951 248.67 23.0815 249.096 21.2822H249.092Z" fill="url(#paint2_linear_1_4)"/>
<path d="M29.1726 23.6981V30.0975H18.364V60.4294H10.8087V30.0975H0V23.6981H29.1726Z" fill="#1D1D1B"/>
<path d="M47.0544 35.2438L46.4243 36.2925L43.7474 41.0669L43.6938 41.0134C42.5379 40.35 41.2982 40.0184 39.968 40.0184C39.0567 40.0184 38.2023 40.169 37.3982 40.464C36.5941 40.7622 35.877 41.1809 35.2472 41.7237C34.6173 42.2665 34.0845 42.9031 33.6457 43.6403C33.2067 44.3739 32.9186 45.1613 32.7812 46.0023V60.4328H25.6448V34.1951H32.7812V37.606C34.6341 35.053 37.3446 33.7764 40.9129 33.7764C43.0136 33.7764 45.0406 34.2656 47.0006 35.2472H47.0544V35.2438Z" fill="#1D1D1B"/>
<path d="M73.2852 34.3257V60.7209H66.0918V59.3504C65.8874 59.451 65.6763 59.5548 65.4585 59.6554C64.6845 60.0139 62.7982 60.8515 60.4362 60.8515C56.1643 60.8515 53.142 59.6922 51.3563 57.3838C49.7078 55.3198 48.8937 52.033 48.8937 47.5233V34.1951H56.0805V47.5233C56.0805 48.4647 56.1106 49.3728 56.1609 50.2506C56.2111 51.1251 56.4021 51.8989 56.7372 52.5624C57.0722 53.2257 57.5816 53.7586 58.2817 54.1673C58.9821 54.5693 59.9804 54.7637 61.2771 54.7637C61.6992 54.7637 62.1147 54.7201 62.5235 54.633C63.341 54.5091 64.4702 54.2478 65.7097 53.658C65.8404 53.591 65.9711 53.5341 66.0951 53.4604V34.3291H73.2885L73.2852 34.3257Z" fill="#1D1D1B"/>
<path d="M90.3022 44.8464C91.4581 45.2317 92.5135 45.6237 93.4751 46.0258C94.4366 46.4278 95.2776 46.9102 95.9947 47.4698C96.7118 48.0293 97.2713 48.7028 97.6733 49.4902C98.0753 50.2776 98.2764 51.2123 98.2764 52.2979V52.3515C98.2764 55.0117 97.3918 57.0924 95.6262 58.5967C93.8604 60.1012 91.3844 60.8516 88.2014 60.8516C86.2079 60.8516 84.2478 60.5066 82.3247 59.8198C80.4015 59.1329 78.599 58.1545 76.9204 56.8813L76.8668 56.8277L76.9204 56.7741L80.4887 51.142L80.5423 51.1956C81.591 52.3147 82.7804 53.1622 84.1106 53.7387C85.4406 54.3149 86.8578 54.603 88.3623 54.603C90.4261 54.603 91.4581 53.9397 91.4581 52.6129C91.4581 51.9862 91.1265 51.5139 90.4596 51.199C89.7963 50.8839 89.0089 50.5891 88.0976 50.3076C87.9233 50.2373 87.7558 50.1937 87.5984 50.177C87.4409 50.1602 87.2733 50.1168 87.0992 50.0463C86.0505 49.7682 85.0018 49.4601 83.9497 49.1316C82.9009 48.8 81.9562 48.3476 81.1152 47.7713C80.2742 47.1951 79.584 46.4647 79.0412 45.5735C78.4984 44.6823 78.2271 43.5397 78.2271 42.146V42.042C78.2271 40.8192 78.455 39.7033 78.9105 38.6916C79.3663 37.6797 80.0129 36.8085 80.8505 36.0749C81.6914 35.3411 82.7033 34.7748 83.8927 34.3728C85.0822 33.9706 86.3921 33.7697 87.8295 33.7697C89.5082 33.7697 91.2036 34.0244 92.919 34.5303C94.631 35.0395 96.2259 35.7801 97.6934 36.7617V36.8655L94.4936 42.6886L94.44 42.635C93.6359 41.8309 92.6375 41.1911 91.4482 40.7186C90.2586 40.2461 88.9989 40.0117 87.6687 40.0117C87.4241 40.0117 87.1427 40.0284 86.8278 40.0653C86.5128 40.1021 86.2246 40.1892 85.9633 40.3266C85.7019 40.4672 85.4808 40.6517 85.3067 40.8794C85.1324 41.1072 85.0454 41.4289 85.0454 41.851C85.0454 42.1659 85.186 42.4542 85.4641 42.7155C85.7422 42.9768 86.1007 43.2214 86.5397 43.4493C86.9752 43.6772 87.4644 43.8949 88.0105 44.106C88.5533 44.317 89.086 44.508 89.612 44.6823C89.7158 44.6823 89.8298 44.699 89.9538 44.7359C90.0777 44.7727 90.1917 44.8062 90.2955 44.8397L90.3022 44.8464Z" fill="#1D1D1B"/>
<path d="M111.025 42.7489V51.4569C111.025 52.2577 111.317 52.9445 111.893 53.504C112.469 54.0568 113.159 54.3416 113.963 54.3416H119.056V60.4261H113.963C112.6 60.4261 111.317 60.1715 110.107 59.669C108.904 59.1596 107.856 58.4593 106.958 57.5715C106.07 56.6735 105.363 55.6316 104.837 54.4454C104.311 53.256 104.049 51.9828 104.049 50.6192V42.7489H100.267V36.919H104.049V27.4238H111.025V36.919H119.056V42.7489H111.025Z" fill="#1D1D1B"/>
<path d="M158.183 23.6981V60.4294H150.785V39.5794L141.24 53.9731L131.634 39.5425V60.4294H124.236V23.6981H129.898L141.24 40.752L152.521 23.6981H158.183Z" fill="#1D1D1B"/>
<path d="M190.501 34.1951V60.4329H183.626V47.2821C183.626 46.267 183.432 45.3187 183.05 44.4409C182.664 43.563 182.132 42.7926 181.449 42.1257C180.766 41.459 179.982 40.9431 179.087 40.5746C178.195 40.2059 177.257 40.0216 176.28 40.0216C175.301 40.0216 174.319 40.216 173.445 40.6013C172.571 40.9865 171.793 41.506 171.109 42.156C170.426 42.8059 169.893 43.5766 169.508 44.4745C169.122 45.3691 168.931 46.3238 168.931 47.3425C168.931 48.3609 169.122 49.2555 169.508 50.1333C169.893 51.0112 170.426 51.7818 171.109 52.4519C171.79 53.1188 172.571 53.6447 173.445 54.0335C174.319 54.4187 175.264 54.6129 176.28 54.6129C177.365 54.6129 178.29 54.4221 179.06 54.0367H179.113V54.1406L181.736 58.8112L181.684 58.8648C179.968 60.1949 177.853 60.8583 175.335 60.8583C173.479 60.8583 171.732 60.5066 170.088 59.8096C168.442 59.1094 167.008 58.1478 165.785 56.9249C164.559 55.7019 163.591 54.2679 162.874 52.6228C162.157 50.9777 161.798 49.2288 161.798 47.3759C161.798 45.5231 162.157 43.7206 162.874 42.0755C163.591 40.4304 164.562 38.9964 165.785 37.7736C167.008 36.5505 168.442 35.5789 170.088 34.862C171.732 34.1449 173.482 33.7864 175.335 33.7864C177.187 33.7864 178.744 34.1248 180.108 34.8016C181.473 35.4783 182.646 36.4567 183.623 37.7399V34.2053H190.498L190.501 34.1951Z" fill="#1D1D1B"/>
<path d="M204.41 42.7489V51.4569C204.41 52.2577 204.694 52.9445 205.27 53.504C205.853 54.0568 206.538 54.3416 207.348 54.3416H212.434V60.4261H207.348C205.985 60.4261 204.694 60.1715 203.492 59.669C202.282 59.1596 201.234 58.4593 200.343 57.5715C199.445 56.6735 198.737 55.6316 198.214 54.4454C197.689 53.256 197.427 51.9828 197.427 50.6192V42.7489H193.652V36.919H197.427V27.4238H204.41V36.919H212.434V42.7489H204.41Z" fill="#1D1D1B"/>
<path d="M241.513 42.0655C240.799 40.417 239.831 38.9898 238.605 37.7668C237.371 36.5439 235.944 35.5655 234.296 34.852C232.648 34.1383 230.909 33.773 229.049 33.773C227.19 33.773 225.384 34.1383 223.721 34.852C222.059 35.5655 220.616 36.5439 219.394 37.7668C218.17 38.9898 217.198 40.4204 216.484 42.0655C215.764 43.714 215.406 45.4762 215.406 47.3626C215.406 49.2489 215.764 50.9711 216.484 52.6095C217.198 54.2579 218.166 55.6919 219.394 56.9183C220.619 58.1445 222.059 59.106 223.721 59.803C225.384 60.5032 227.163 60.8517 229.049 60.8517C231.22 60.8517 233.277 60.3558 235.214 59.364C237.16 58.379 238.756 57.002 240.015 55.2396L240.116 55.129L234.031 52.4555L233.931 52.3985L233.88 52.4555C233.174 53.3668 232.437 53.9498 231.649 54.2111C230.861 54.4725 229.994 54.6031 229.046 54.6031C227.998 54.6031 227.056 54.3685 226.211 53.896C225.374 53.4237 224.659 52.8407 224.061 52.1471C223.608 51.6145 223.236 51.0314 222.945 50.4048H242.213L242.27 50.2943C242.475 49.3529 242.584 48.3778 242.584 47.356C242.584 45.4697 242.219 43.7038 241.506 42.0589L241.513 42.0655ZM222.543 45.0541C222.609 44.843 222.673 44.6386 222.754 44.441C223.102 43.5531 223.584 42.7792 224.198 42.1392C224.811 41.4892 225.538 40.9799 226.375 40.5947C227.213 40.216 228.111 40.0184 229.049 40.0184C230.588 40.0184 231.928 40.4909 233.066 41.439C234.202 42.3804 235.013 43.5899 235.508 45.0541H222.543Z" fill="#1D1D1B"/>
<defs>
<linearGradient id="paint0_linear_1_4" x1="242.343" y1="49.9315" x2="272.469" y2="1.53376" gradientUnits="userSpaceOnUse">
<stop stop-color="#FFA727"/>
<stop offset="0.05" stop-color="#FE9F20"/>
<stop offset="0.2" stop-color="#FD8D0E"/>
<stop offset="0.36" stop-color="#FC8103"/>
<stop offset="0.53" stop-color="#FC7E00"/>
<stop offset="1" stop-color="#FF4800"/>
</linearGradient>
<linearGradient id="paint1_linear_1_4" x1="272.74" y1="44.8888" x2="292.009" y2="13.9365" gradientUnits="userSpaceOnUse">
<stop stop-color="#FFA727"/>
<stop offset="0.05" stop-color="#FE9F20"/>
<stop offset="0.2" stop-color="#FD8D0E"/>
<stop offset="0.36" stop-color="#FC8103"/>
<stop offset="0.53" stop-color="#FC7E00"/>
<stop offset="1" stop-color="#FF4800"/>
</linearGradient>
<linearGradient id="paint2_linear_1_4" x1="243.996" y1="19.428" x2="249.397" y2="33.3793" gradientUnits="userSpaceOnUse">
<stop stop-color="#FFA727"/>
<stop offset="0.05" stop-color="#FE9F20"/>
<stop offset="0.2" stop-color="#FD8D0E"/>
<stop offset="0.36" stop-color="#FC8103"/>
<stop offset="0.53" stop-color="#FC7E00"/>
<stop offset="1" stop-color="#FF4800"/>
</linearGradient>
</defs>
</svg>
